<svg xmlns="http://www.w3.org/2000/svg" xmlns:xlink="http://www.w3.org/1999/xlink" viewBox="0,0,256,256" width="20px" height="20px" fill-rule="nonzero"><g fill="#ffffff" fill-rule="nonzero" stroke="none" stroke-width="1" stroke-linecap="butt" stroke-linejoin="miter" stroke-miterlimit="10" stroke-dasharray="" stroke-dashoffset="0" font-family="none" font-weight="none" font-size="none" text-anchor="none" style="mix-blend-mode: normal"><g transform="scale(5.33333,5.33333)"><path d="M44,24c0,-11.028 -8.972,-20 -20,-20c-11.028,0 -20,8.972 -20,20c0,0.338 0,1.662 0,2c0,11.028 8.972,20 20,20c11.028,0 20,-8.972 20,-20c0,-0.338 0,-1.662 0,-2zM24,35c-0.792,0 -1.568,-0.094 -2.327,-0.259l12.617,-12.616c0.35,0.918 0.57,1.869 0.661,2.846c-0.494,5.611 -5.213,10.029 -10.951,10.029zM24,15c0.792,0 1.568,0.094 2.327,0.259l-12.617,12.616c-0.35,-0.918 -0.57,-1.869 -0.661,-2.846c0.494,-5.611 5.213,-10.029 10.951,-10.029z"></path><path d="M24,5c-10.493,0 -19,8.507 -19,19c0,10.493 8.507,19 19,19c10.493,0 19,-8.507 19,-19c0,-10.493 -8.507,-19 -19,-19zM24,12c2.026,0 3.928,0.511 5.601,1.399l-16.202,16.202c-0.888,-1.673 -1.399,-3.575 -1.399,-5.601c0,-6.627 5.373,-12 12,-12zM24,36c-2.026,0 -3.928,-0.511 -5.601,-1.399l16.203,-16.203c0.887,1.674 1.398,3.576 1.398,5.602c0,6.627 -5.373,12 -12,12z"></path><path d="M24,44c-11.028,0 -20,-8.972 -20,-20c0,-11.028 8.972,-20 20,-20c11.028,0 20,8.972 20,20c0,11.028 -8.972,20 -20,20zM24,6c-9.925,0 -18,8.075 -18,18c0,9.925 8.075,18 18,18c9.925,0 18,-8.075 18,-18c0,-9.925 -8.075,-18 -18,-18zM24,37c-2.132,0 -4.174,-0.51 -6.07,-1.515c-0.28,-0.148 -0.474,-0.421 -0.521,-0.735c-0.047,-0.314 0.057,-0.631 0.282,-0.855l16.203,-16.203c0.224,-0.225 0.538,-0.332 0.855,-0.282c0.313,0.047 0.586,0.24 0.735,0.52c1.006,1.895 1.516,3.938 1.516,6.07c0,7.168 -5.832,13 -13,13zM20.125,34.29c1.237,0.472 2.535,0.71 3.875,0.71c6.065,0 11,-4.935 11,-11c0,-1.34 -0.238,-2.638 -0.71,-3.875zM13.398,30.602c-0.049,0 -0.099,-0.003 -0.148,-0.011c-0.313,-0.047 -0.586,-0.24 -0.735,-0.52c-1.005,-1.896 -1.515,-3.939 -1.515,-6.071c0,-7.168 5.832,-13 13,-13c2.132,0 4.174,0.51 6.07,1.515c0.28,0.148 0.474,0.421 0.521,0.735c0.047,0.314 -0.057,0.631 -0.282,0.855l-16.204,16.204c-0.188,0.189 -0.443,0.293 -0.707,0.293zM24,13c-6.065,0 -11,4.935 -11,11c0,1.34 0.238,2.638 0.71,3.875l14.165,-14.165c-1.237,-0.472 -2.535,-0.71 -3.875,-0.71z"></path></g></g></svg>